<svg width="24" height="24" viewBox="0 0 24 24" fill="none" xmlns="http://www.w3.org/2000/svg">
<g id="mdi:chat-outline">
<path id="Vector" d="M12 3C17.5 3 22 6.58 22 11C21.9748 12.0627 21.7152 13.1067 21.2398 14.0574C20.7644 15.0081 20.085 15.8422 19.25 16.5C19.25 17.1 19.67 18.67 22 21C19.63 20.89 17.36 20 15.53 18.5C14.39 18.83 13.19 19 12 19C6.5 19 2 15.42 2 11C2 6.58 6.5 3 12 3ZM12 17C16.42 17 20 14.31 20 11C20 7.69 16.42 5 12 5C7.58 5 4 7.69 4 11C4 14.31 7.58 17 12 17Z" fill="#08B6D5"/>
</g>
</svg>
