<svg width="20" height="20" viewBox="0 0 20 20" fill="none" xmlns="http://www.w3.org/2000/svg">
<g id="Edit 1">
<path id="Rectangle 54" d="M10 3.33321H5.33337C4.2288 3.33321 3.33337 4.22864 3.33337 5.33321V14.6665C3.33337 15.7711 4.2288 16.6665 5.33337 16.6665H14.6667C15.7713 16.6665 16.6667 15.7711 16.6667 14.6665V9.99987M15.3452 7.01171L16.25 6.10691C16.9009 5.45604 16.9009 4.40077 16.25 3.7499C15.5991 3.09902 14.5438 3.09903 13.893 3.74991L12.9882 4.65469M15.3452 7.01171L10.315 12.042C10.0823 12.2747 9.786 12.4333 9.46334 12.4978L7.01189 12.9881L7.50219 10.5366C7.56671 10.214 7.7253 9.91766 7.95797 9.68499L12.9882 4.65469M15.3452 7.01171L12.9882 4.65469" stroke="#069FCF" stroke-width="2" stroke-linecap="round" stroke-linejoin="round"/>
</g>
</svg>
