<svg width="52" height="52" viewBox="0 0 52 52" fill="none" xmlns="http://www.w3.org/2000/svg">
<g id="Headset Mic 1">
<path id="Rectangle 22" d="M13 21.6667H14.625C16.1208 21.6667 17.3333 22.8792 17.3333 24.375V31.9583C17.3333 33.4541 16.1208 34.6667 14.625 34.6667H13C9.41015 34.6667 6.5 31.7565 6.5 28.1667C6.5 24.5768 9.41015 21.6667 13 21.6667ZM13 21.6667V19.5C13 12.3203 18.8203 6.5 26 6.5C33.1797 6.5 39 12.3203 39 19.5V21.6667M39 21.6667H37.375C35.8792 21.6667 34.6667 22.8792 34.6667 24.375V31.9583C34.6667 33.4541 35.8792 34.6667 37.375 34.6667H39M39 21.6667C42.5899 21.6667 45.5 24.5768 45.5 28.1667C45.5 31.7565 42.5899 34.6667 39 34.6667M39 34.6667L37.6539 40.051C37.1717 41.98 35.4384 43.3333 33.45 43.3333H28.1667" stroke="#FDFDFF" stroke-width="4" stroke-linecap="round" stroke-linejoin="round"/>
</g>
</svg>
